solid atmosphere
 facet normal 0 0 1
  outer loop
   vertex 6 0.48 0.4
   vertex 0 0.48 0.4
   vertex 0 0 0.4
  endloop
 endfacet
 facet normal 0 0 1
  outer loop
   vertex 6 0.48 0.4
   vertex 0 0 0.4
   vertex 6 0 0.4
  endloop
 endfacet
endsolid atmosphere
solid inlet
 facet normal -1 0 0
  outer loop
   vertex 0 0.48 0
   vertex 0 0 0
   vertex 0 0.48 0.4
  endloop
 endfacet
 facet normal -1 0 0
  outer loop
   vertex 0 0 0
   vertex 0 0 0.4
   vertex 0 0.48 0.4
  endloop
 endfacet
endsolid inlet
solid wall
 facet normal 1 0 0
  outer loop
   vertex 6 0 0
   vertex 6 0.48 0
   vertex 6 0.48 0.4
  endloop
 endfacet
 facet normal 1 -0 0
  outer loop
   vertex 6 0 0.4
   vertex 6 0 0
   vertex 6 0.48 0.4
  endloop
 endfacet
 facet normal 0 -1 0
  outer loop
   vertex 6 0 0
   vertex 6 0 0.4
   vertex 0 0 0
  endloop
 endfacet
 facet normal 0 -1 0
  outer loop
   vertex 0 0 0
   vertex 6 0 0.4
   vertex 0 0 0.4
  endloop
 endfacet
 facet normal 0 1 0
  outer loop
   vertex 6 0.48 0.4
   vertex 6 0.48 0
   vertex 0 0.48 0
  endloop
 endfacet
 facet normal 0 1 0
  outer loop
   vertex 6 0.48 0.4
   vertex 0 0.48 0
   vertex 0 0.48 0.4
  endloop
 endfacet
 facet normal 0 0 -1
  outer loop
   vertex 0 0.48 0
   vertex 6 0.48 0
   vertex 0 0 0
  endloop
 endfacet
 facet normal 0 0 -1
  outer loop
   vertex 0 0 0
   vertex 6 0.48 0
   vertex 6 0 0
  endloop
 endfacet
endsolid wall
