solid wall
  facet normal 1.000000 0.000000 0.000000
    outer loop
      vertex 6000.000000 0.000000 0.000000
      vertex 6000.000000 480.000000 0.000000
      vertex 6000.000000 480.000000 400.000000
    endloop
  endfacet
  facet normal 1.000000 -0.000000 0.000000
    outer loop
      vertex 6000.000000 0.000000 400.000000
      vertex 6000.000000 0.000000 0.000000
      vertex 6000.000000 480.000000 400.000000
    endloop
  endfacet
  facet normal 0.000000 -1.000000 0.000000
    outer loop
      vertex 6000.000000 0.000000 0.000000
      vertex 6000.000000 0.000000 400.000000
      vertex 0.000000 0.000000 0.000000
    endloop
  endfacet
  facet normal 0.000000 -1.000000 0.000000
    outer loop
      vertex 0.000000 0.000000 0.000000
      vertex 6000.000000 0.000000 400.000000
      vertex 0.000000 0.000000 400.000000
    endloop
  endfacet
  facet normal 0.000000 1.000000 0.000000
    outer loop
      vertex 6000.000000 480.000000 400.000000
      vertex 6000.000000 480.000000 0.000000
      vertex 0.000000 480.000000 0.000000
    endloop
  endfacet
  facet normal 0.000000 1.000000 0.000000
    outer loop
      vertex 6000.000000 480.000000 400.000000
      vertex 0.000000 480.000000 0.000000
      vertex 0.000000 480.000000 400.000000
    endloop
  endfacet
  facet normal 0.000000 0.000000 -1.000000
    outer loop
      vertex 0.000000 480.000000 0.000000
      vertex 6000.000000 480.000000 0.000000
      vertex 0.000000 0.000000 0.000000
    endloop
  endfacet
  facet normal 0.000000 0.000000 -1.000000
    outer loop
      vertex 0.000000 0.000000 0.000000
      vertex 6000.000000 480.000000 0.000000
      vertex 6000.000000 0.000000 0.000000
    endloop
  endfacet
endsolid Mesh
